<?xml version="1.0" encoding="utf-8" ?><svg xmlns="http://www.w3.org/2000/svg" xmlns:xlink="http://www.w3.org/1999/xlink" width="512" height="512" viewBox="0 0 512 512"><path fill="#7151A8" transform="scale(0.5 0.5)" d="M361.628 234.281C369.915 233.516 388.932 234.195 398.067 234.17L487.797 234.357L646.354 234.412C655.956 234.503 665.557 234.516 675.159 234.452C693.964 234.138 715.551 232.825 733.662 237.644C818.171 260.129 852.714 354.475 830.759 433.103C815.099 489.185 782.973 524.052 734.101 552.695C755.703 562.348 765.963 564.439 784.236 582.714C809.959 608.063 824.338 642.738 824.102 678.852C823.868 750.952 768.202 818.514 692.297 813.612C685.898 813.199 678.19 813.481 671.642 813.407C643.144 812.314 609.737 813.068 580.926 813.047L415.544 813.006L358.639 813.187C344.16 813.304 330.73 814.095 316.233 812.338C277.765 807.678 247.35 786.891 223.997 756.635C196.081 720.471 186.458 674.111 192.391 629.334C198.707 586.324 222.986 546.314 257.866 520.563C277.164 506.316 299.652 495.163 318.128 481.067C265.099 467.328 234.71 423.043 232.91 369.47C231.648 331.906 245.044 298.196 270.872 271.051C287.09 254.007 309.451 240.98 332.593 236.331C341.78 234.575 352.16 234.51 361.628 234.281ZM258.045 760.139C268.145 768.683 281.997 778.709 294.368 783.362C297.437 784.072 302.368 786.019 305.687 787.019C344.415 798.682 384.117 784.634 409.128 753.499C411.999 749.831 414.15 746.676 416.711 742.781C433.307 711.686 436.845 679.295 427.261 645.342C415.54 603.816 375.2 568.825 330.43 581.786C291.699 592.999 270.472 640.342 282.287 677.806C288.154 696.41 298.884 707.183 315.734 716.271C313.172 712.984 310.673 709.81 308.375 706.326C291.455 680.673 293.323 646.818 318.75 627.515C329.785 619.289 343.675 615.868 357.269 618.029C389.809 622.903 407.582 656.705 401.812 687.405C395.485 723.596 358.485 749.138 321.976 741.439C274.199 731.363 249.219 685.672 257.68 638.568C268.982 575.641 327.043 555.733 373.579 523.33C384.441 516.118 395.038 509.268 405.271 501.096C435.875 476.655 453.712 446.144 461.933 408.173C474.75 348.978 437.912 269.898 374.32 258.106C349.153 253.309 323.115 258.92 302.158 273.658C253.587 307.466 240.968 377.378 275.09 425.997C296.144 455.997 337.842 470.435 369.346 447.285C402.13 423.194 413.087 363.532 377.737 336.575C387.21 347.4 392.313 358.985 391.323 373.691C390.442 388.252 383.741 401.846 372.729 411.413C361.758 420.905 348.754 425.559 334.27 424.362C319.916 423.241 306.637 416.322 297.493 405.2C260.921 361.31 303.009 296.174 357.568 303.665C377.325 306.377 394.15 317.149 405.877 332.79C437.495 374.965 420.7 439.438 379.273 468.764C369.26 475.851 359.04 481.932 348.792 488.313C333.043 498.282 317.387 508.398 301.827 518.66C292.337 524.824 277.767 533.691 269.217 540.41C239.507 563.638 219.896 597.427 214.464 634.747C208.308 676.432 222.274 722.6 250.988 753.33C252.304 754.738 257.381 759.057 258.045 760.139ZM755.189 506.723C744.954 507.369 724.546 507.192 715.709 509.041C710.028 510.23 689.511 526.345 683.143 530.427C674.073 536.24 661.22 544.078 653.087 550.987L658.375 551.043C665.635 550.875 672.896 550.794 680.158 550.799C684.367 550.804 691.262 551.024 695.172 550.529C703.654 543.788 755.766 510.693 757.324 506.861C756.016 506.554 756.462 506.574 755.189 506.723ZM669.057 508.393C652.449 508.342 635.533 509.203 618.907 509.768L558.597 511.553L452.25 515.508C442.467 515.938 432.018 515.888 422.348 516.493C412.948 524.252 403.505 531.447 393.449 538.3C388.885 541.41 366.953 554.013 365.838 557.007C366.541 557.511 366.167 557.396 366.931 557.433C376.122 558.564 383.15 557.689 392.274 557.419C404.816 557.048 417.827 556.057 430.329 555.89L536.523 553.879L578.676 552.935C588.97 552.779 598.715 553.021 609.136 552.497C617.996 545.605 626.959 538.846 636.023 532.224C639.704 529.587 668.09 510.497 669.469 508.708L669.057 508.393Z"/><path fill="#7151A8" transform="scale(0.5 0.5)" d="M258.045 760.139C268.145 768.683 281.997 778.709 294.368 783.362C290.33 785.87 279.046 777.631 275.297 775.177L275.489 775.171C271.783 772.351 258.738 763.711 258.045 760.139Z"/><path fill="#7151A8" transform="scale(0.5 0.5)" d="M416.711 742.781C418.636 746.207 413.036 752.251 410.751 755.032C409.496 754.451 410.072 754.779 409.128 753.499C411.999 749.831 414.15 746.676 416.711 742.781Z"/></svg>